<?xml version="1.0" standalone="no"?>
<!DOCTYPE svg PUBLIC "-//W3C//DTD SVG 20010904//EN"
 "http://www.w3.org/TR/2001/REC-SVG-20010904/DTD/svg10.dtd">
<svg version="1.0" xmlns="http://www.w3.org/2000/svg"
 width="512.000000pt" height="512.000000pt" viewBox="0 0 512.000000 512.000000"
 preserveAspectRatio="xMidYMid meet">

<g transform="translate(0.000000,512.000000) scale(0.100000,-0.100000)"
fill="#1976d2" stroke="none">
<path d="M4255 4731 c-16 -10 -94 -84 -172 -163 l-143 -143 235 -235 235 -235
151 150 c83 83 158 165 166 183 25 59 8 83 -191 280 -165 164 -187 182 -217
182 -19 0 -47 -9 -64 -19z"/>
<path d="M542 4723 c-23 -8 -62 -34 -86 -59 -83 -82 -76 104 -76 -2104 0
-2208 -7 -2022 76 -2104 82 -83 -104 -76 2104 -76 2208 0 2022 -7 2104 76 81
80 76 11 76 1146 0 1111 3 1058 -62 1098 -30 18 -50 20 -197 20 l-163 0 -39
-39 -39 -39 0 -881 0 -881 -1680 0 -1680 0 0 1680 0 1680 876 0 c860 0 877 0
909 20 51 32 60 66 60 235 0 168 -6 188 -68 225 -31 19 -58 20 -1052 19 -882
0 -1026 -3 -1063 -16z"/>
<path d="M2757 3252 l-1037 -1037 240 -240 240 -240 1038 1038 1037 1037 -240
240 -240 240 -1038 -1038z"/>
<path d="M1511 1799 c-80 -297 -81 -313 -26 -334 27 -11 60 -4 290 57 143 38
263 73 267 77 4 3 -97 111 -225 239 l-233 233 -73 -272z"/>
</g>
</svg>
