<svg width="192" height="192" viewBox="0 0 192 192" fill="none" xmlns="http://www.w3.org/2000/svg">
<path d="M101 32C95.1 32 90.3 35.4 87 39.4C83.7 35.4 78.9 32 73 32C62.4 32 53.7 40.7 53.7 51.3C53.7 54.4 54.5 57.5 55.9 60.2C56.7 62 61.7 71.4 82.6 87.9C83.8 88.9 85.3 89.4 86.8 89.4C88.3 89.4 89.8 88.9 91 87.9C105.4 76.5 112.3 68.5 115.6 63.8C117.6 61 120.2 56.7 120.2 51.3C120.3 40.7 111.6 32 101 32Z" fill="#09CFAF"/>
<path d="M38.8 114C36.6 114 34.8 115.8 34.8 118V131.4C34.8 133.6 36.6 135.4 38.8 135.4C41 135.4 42.8 133.6 42.8 131.4V118C42.8 115.8 41 114 38.8 114Z" fill="#09CFAF"/>
<path d="M171.5 109.5C171.2 107.3 170 104 165.9 101.2C157.7 95.6002 151.4 99.1002 149.1 101.8L134.2 117.3C133.6 114.9 132.3 112.8 130.6 111.2C125.7 106.5 118.5 106.7 117.7 106.8L115.5 106.9C113.6 106.9 109.9 106.9 102.4 106.8C96 106.7 94 104.9 91.3 102.7C88.2 100 84.2 96.7002 74.5 96.7002C63.2 96.7002 55.9 100.4 51.9 103.3C48.6 100 44.1 98.0002 39 98.0002H30.5C24.6 98.0002 19.7 102.8 19.7 108.8V148.5C19.7 154.5 25 159.9 30.8 159.9H39.3C43.9 159.9 48.1 158.1 51.2 155.1C55.8 157 65.2 159.7 81.1 159.7H126.1C126.6 159.7 138.5 159.5 150.5 143.5L168.5 118.6C169.5 117.8 172.1 114.1 171.5 109.5ZM39.6 151.9H31.1C29.6 151.9 28 150.1 28 148.5V108.8C28 107.3 29.2 106 30.8 106H39.3C45 106 49.6 110.6 49.6 116.3V141C49.5 146.9 45 151.9 39.6 151.9ZM162.6 113.6L144.4 138.8C135 151.3 126.7 151.7 126.5 151.7H81.5C68.5 151.7 60.5 149.8 56.3 148.3C57.2 146 57.7 143.6 57.7 141V116.4C57.7 114.2 57.3 112.1 56.6 110.1C59.3 108.1 65 104.8 74.9 104.8C81.7 104.8 83.8 106.6 86.5 108.9C89.6 111.5 93.4 114.7 102.6 114.9C108.9 115 113.5 115 116.1 115C116.9 115 117.6 115 118.3 114.9C119.6 114.9 123.3 115.2 125.3 117.1C126.4 118.2 127 119.7 127 121.7C127 124.1 126.5 125.5 125.8 126.4L125.4 126.8C124.6 127.5 123.7 127.6 122.9 127.6H91.2C89 127.6 87.2 129.4 87.2 131.6C87.2 133.8 89 135.6 91.2 135.6H122.7C125.2 135.6 128 134.8 130.2 133C130.4 132.8 130.6 132.7 130.8 132.5L155 107.3L155.2 107.1C155.7 106.5 157.6 105.2 161.4 107.9C162.7 108.8 163.4 109.7 163.5 110.6C163.8 111.8 162.9 113.2 162.6 113.6Z" fill="#0F0E5B"/>
<path d="M106 89.0998C104.6 89.0998 103.1 88.5998 101.9 87.6998C80.9 71.0998 75.9 61.6998 75.1 59.8998C73.7 57.1998 73 54.0998 73 50.9998C73 40.3998 81.6 31.7998 92.2 31.7998C98.2 31.7998 103 35.2998 106.3 39.3998C109.6 35.2998 114.4 31.7998 120.4 31.7998C131 31.7998 139.6 40.3998 139.6 50.9998C139.6 56.2998 137 60.5998 135 63.3998C131.7 68.0998 124.8 76.1998 110.3 87.5998C108.9 88.5998 107.5 89.0998 106 89.0998ZM92.1 39.8998C86 39.8998 81 44.8998 81 50.9998C81 52.7998 81.4 54.5998 82.3 56.1998L82.5 56.5998C82.5 56.5998 86.4 64.9998 106.1 80.6998C119.9 69.6998 126 62.2998 128.4 58.8998C130.6 55.7998 131.6 53.3998 131.6 51.0998C131.6 44.8998 126.6 39.8998 120.4 39.8998C116.2 39.8998 112.3 43.9998 110.4 47.8998C109.6 49.4998 108 50.4998 106.3 50.4998C104.6 50.4998 102.9 49.4998 102.2 47.8998C100.3 43.9998 96.4 39.8998 92.1 39.8998Z" fill="#0F0E5B"/>
</svg>
